# xmcd CD database file
#
# Track frame offsets:
#	182
#	35567
#	65867
#	117692
#	141617
#	175292
#
# Disc length: 2798 seconds
#
# Revision: 3
# Processed by: cddbd v1.5PL3 Copyright (c) Steve Scherf et al.
# Submitted via: CDex 1.51
#
DISCID=650aec06
DTITLE=Eric Clapton - E.C. Was Here
DYEAR=1975
DGENRE=Rock
TTITLE0=Have You Ever Loved A Woman
TTITLE1=Presence Of The Lord
TTITLE2=Drifting Blues
TTITLE3=Can't Find My Way Home
TTITLE4=Rambling On My Mind
TTITLE5=Further On Up The Road
EXTD=YEAR: 1975
EXTT0=
EXTT1=
EXTT2=
EXTT3=
EXTT4=
EXTT5=
PLAYORDER=
